<svg xmlns="http://www.w3.org/2000/svg" aria-hidden="true" style="position:absolute;width:0;height:0;overflow:hidden">
  <defs>
    <symbol id="logo" viewBox="0 0 107 32">
      <path fill="#fff" d="M9.414 25.571c-1.505 0-2.767-.357-3.786-1.071s-1.786-1.686-2.3-2.914c-.514-1.238-.771-2.624-.771-4.157 0-1.552.257-2.943.771-4.171s1.267-2.195 2.257-2.9c1-.714 2.233-1.071 3.7-1.071 1.457 0 2.719.357 3.786 1.071 1.076.705 1.909 1.671 2.5 2.9.59 1.219.886 2.61.886 4.171 0 1.543-.291 2.929-.871 4.157s-1.4 2.2-2.457 2.914-2.295 1.071-3.714 1.071zM1.971 32V9.714h3.043v10.829h.429V32H1.972zm6.915-9.514c.895 0 1.633-.224 2.214-.671s1.009-1.052 1.286-1.814c.286-.771.429-1.629.429-2.571 0-.933-.143-1.781-.429-2.543-.286-.771-.729-1.381-1.329-1.829-.6-.457-1.362-.686-2.286-.686-.876 0-1.591.214-2.143.643-.552.419-.962 1.009-1.229 1.771-.257.752-.386 1.633-.386 2.643 0 1 .129 1.881.386 2.643.267.762.681 1.357 1.243 1.786.571.419 1.319.629 2.243.629zm16.591 3.085c-1.562 0-2.933-.338-4.114-1.014s-2.105-1.614-2.771-2.814c-.657-1.2-.986-2.581-.986-4.143 0-1.686.324-3.148.971-4.386.648-1.248 1.548-2.214 2.7-2.9s2.486-1.029 4-1.029c1.6 0 2.957.376 4.071 1.129 1.124.743 1.957 1.795 2.5 3.157s.748 2.967.614 4.814h-3.414v-1.257c-.009-1.676-.305-2.9-.886-3.671S26.667 12.3 25.419 12.3c-1.41 0-2.457.438-3.143 1.314-.686.867-1.029 2.138-1.029 3.814 0 1.562.343 2.771 1.029 3.629s1.686 1.286 3 1.286c.848 0 1.576-.186 2.186-.557.619-.381 1.095-.929 1.429-1.643l3.4 1.029c-.591 1.39-1.505 2.471-2.743 3.243-1.229.771-2.586 1.157-4.071 1.157zm-5.314-7.185v-2.6h10.614v2.6H20.163zm23.388 6.757a14.069 14.069 0 0 1-3 .243c-.971-.019-1.843-.195-2.614-.529a3.626 3.626 0 0 1-1.757-1.614c-.352-.667-.538-1.348-.557-2.043s-.029-1.481-.029-2.357V5.429h3.429v13.214c0 .619.005 1.162.014 1.629.019.467.119.848.3 1.143.343.571.891.89 1.643.957s1.61.029 2.571-.114v2.886zM32.793 12.414v-2.7H43.55v2.7H32.793zm13.218 12.729v-21h3.443v21h-3.443z" style="fill:var(--color1, #fff)"/>
      <path fill="#f6b83d" d="M63.708 10.679c-1.874-2.212-4.998-2.807-7.346-.782s-2.678 5.413-.835 7.809c1.181 1.535 4.205 4.38 6.227 6.228.672.614 1.008.921 1.41 1.044.346.106.741.106 1.087 0 .402-.123.738-.43 1.41-1.044 2.022-1.848 5.046-4.693 6.227-6.228 1.843-2.396 1.553-5.804-.835-7.809s-5.472-1.431-7.346.782z" style="fill:var(--color2, #f6b83d)"/>
      <path fill="#fff" d="M81.6 25.143 76 9.714h3.443L83.329 20.9 87.2 9.714h3.457l-5.6 15.429H81.6zm16.934.428c-1.562 0-2.933-.338-4.114-1.014s-2.105-1.614-2.771-2.814c-.657-1.2-.986-2.581-.986-4.143 0-1.686.324-3.148.971-4.386.648-1.248 1.548-2.214 2.7-2.9s2.486-1.029 4-1.029c1.6 0 2.957.376 4.071 1.129 1.124.743 1.957 1.795 2.5 3.157s.748 2.967.614 4.814h-3.414v-1.257c-.009-1.676-.305-2.9-.886-3.671S99.724 12.3 98.476 12.3c-1.409 0-2.457.438-3.143 1.314-.686.867-1.029 2.138-1.029 3.814 0 1.562.343 2.771 1.029 3.629s1.686 1.286 3 1.286c.848 0 1.576-.186 2.186-.557.619-.381 1.095-.929 1.429-1.643l3.4 1.029c-.59 1.39-1.505 2.471-2.743 3.243-1.229.771-2.586 1.157-4.071 1.157zm-5.314-7.185v-2.6h10.614v2.6H93.22z" style="fill:var(--color1, #fff)"/>
    </symbol>
    <symbol id="slider-double" viewBox="0 0 34 32">
      <path d="M5.228 17.625a2.279 2.279 0 0 1-.676-1.623 2.284 2.284 0 0 1 .676-1.623L15.719 3.91a2.279 2.279 0 0 0 .676-1.623 2.284 2.284 0 0 0-.676-1.623 2.285 2.285 0 0 0-3.222 0L2.006 11.155a6.859 6.859 0 0 0 0 9.692l10.491 10.491a2.289 2.289 0 0 0 3.898-1.623 2.287 2.287 0 0 0-.676-1.623L5.228 17.623z"/>
      <path d="M21.228 17.625a2.279 2.279 0 0 1-.676-1.623 2.284 2.284 0 0 1 .676-1.623L31.72 3.91a2.279 2.279 0 0 0 .676-1.623A2.284 2.284 0 0 0 31.72.664a2.285 2.285 0 0 0-3.222 0L18.006 11.155a6.859 6.859 0 0 0 0 9.692l10.492 10.491a2.289 2.289 0 0 0 3.723-2.502 2.3 2.3 0 0 0-.5-.744L21.229 17.623z"/>
    </symbol>
    <symbol id="slider-single" viewBox="0 0 18 32">
      <path d="M5.228 17.625a2.279 2.279 0 0 1-.676-1.623 2.284 2.284 0 0 1 .676-1.623L15.719 3.91a2.279 2.279 0 0 0 .676-1.623 2.284 2.284 0 0 0-.676-1.623 2.285 2.285 0 0 0-3.222 0L2.006 11.155a6.859 6.859 0 0 0 0 9.692l10.491 10.491a2.289 2.289 0 0 0 3.898-1.623 2.287 2.287 0 0 0-.676-1.623L5.228 17.623z"/>
    </symbol>
    <symbol id="upload-cloud" viewBox="0 0 32 32">
      <path stroke-linecap="round" stroke-linejoin="round" stroke-width="2.311" d="M16 16v12M27.187 24.52a6.671 6.671 0 0 0 3.27-7.497A6.669 6.669 0 0 0 24.001 12h-1.68a10.659 10.659 0 0 0-10.72-7.99A10.657 10.657 0 0 0 3.38 8.378a10.661 10.661 0 0 0-1.66 9.159 10.656 10.656 0 0 0 2.281 4.196"/>
      <path stroke-linecap="round" stroke-linejoin="round" stroke-width="2.311" d="M21.333 21.333 16 16l-5.333 5.333"/>
    </symbol>
    <symbol id="menu" viewBox="0 0 32 32">
      <path stroke-linecap="round" stroke-linejoin="round" stroke-width="2.667" d="M4 16h24M4 8h24M4 24h24"/>
    </symbol>
    <symbol id="plus" viewBox="0 0 32 32">
      <path stroke-linecap="round" stroke-linejoin="round" stroke-width="2.667" d="M16 6.667v18.667M6.667 16h18.667"/>
    </symbol>
    <symbol id="female" viewBox="0 0 32 32">
      <path stroke-linecap="round" stroke-linejoin="round" stroke-width="2" d="M16 17.333a6.667 6.667 0 1 0 0-13.334 6.667 6.667 0 0 0 0 13.334zm0 0V28m-4-4h8"/>
    </symbol>
    <symbol id="male" viewBox="0 0 32 32">
      <path stroke-linecap="round" stroke-linejoin="round" stroke-width="2" d="M16 14.667a6.667 6.667 0 1 0 0 13.334 6.667 6.667 0 0 0 0-13.334zm0 0V4m0 0 5.333 5.333M16 4l-5.333 5.333"/>
    </symbol>
    <symbol id="male-female" viewBox="0 0 32 32">
      <path d="M11.694 10.327a4.665 4.665 0 1 0 2.912 3.635.654.654 0 0 1 .313-.672.653.653 0 0 1 .504-.078.67.67 0 0 1 .501.546 5.993 5.993 0 0 1-3.514 6.403 5.997 5.997 0 1 1-.232-11.077.665.665 0 0 1 .433.609.669.669 0 0 1-.403.628.665.665 0 0 1-.515.006z"/>
      <path d="M9.331 26v-5.331a.665.665 0 1 1 1.332 0V26a.665.665 0 1 1-1.332 0z"/>
      <path d="M7.332 22.668a.665.665 0 0 1 .666-.666h3.998a.665.665 0 1 1 0 1.332H7.998a.665.665 0 0 1-.666-.666zm11.93-12.486a4.653 4.653 0 0 0-4.297.943 4.678 4.678 0 0 0-1.315 1.848 4.652 4.652 0 0 0-.288 2.249.67.67 0 0 1-.335.663.665.665 0 0 1-.989-.507 5.997 5.997 0 1 1 3.582 4.801.655.655 0 0 1-.355-.365.668.668 0 0 1 .883-.859 4.665 4.665 0 1 0 3.115-8.773z"/>
      <path d="M21.855 11.477a.665.665 0 0 1 0-.942l4.998-4.998a.658.658 0 0 1 .473-.203.655.655 0 0 1 .477.196.673.673 0 0 1 .196.477.669.669 0 0 1-.203.473l-4.998 4.998a.667.667 0 0 1-.942 0z"/>
      <path d="M27.273 10.007a.669.669 0 0 1-.657-.675l.033-2.648-2.648.033a.67.67 0 0 1-.675-.658.67.67 0 0 1 .658-.675L28 5.333l-.051 4.016a.65.65 0 0 1-.201.468c-.063.061-.137.109-.218.142s-.168.049-.256.047z"/>
    </symbol>
    <symbol id="edit" viewBox="0 0 32 32">
      <path stroke-linecap="round" stroke-linejoin="round" stroke-width="2.667" d="M22.667 4a3.766 3.766 0 0 1 4.109-.817 3.766 3.766 0 0 1 2.327 3.484 3.779 3.779 0 0 1-1.104 2.666l-18 18-7.333 2 2-7.333 18-18z"/>
    </symbol>
    <symbol id="trash" viewBox="0 0 32 32">
      <path stroke-linecap="round" stroke-linejoin="round" stroke-width="2.667" d="M4 8h24M25.333 8v18.667a2.668 2.668 0 0 1-2.667 2.667H9.333a2.668 2.668 0 0 1-2.667-2.667V8m4.001 0V5.333a2.668 2.668 0 0 1 2.667-2.667h5.333a2.668 2.668 0 0 1 2.667 2.667V8M13.333 14.667v8M18.667 14.667v8"/>
    </symbol>
    <symbol id="heart" viewBox="0 0 32 32">
      <path stroke-linecap="round" stroke-linejoin="round" stroke-width="2.667" d="M27.788 6.147a7.345 7.345 0 0 0-5.187-2.15 7.33 7.33 0 0 0-5.187 2.15L16.001 7.56l-1.413-1.413a7.333 7.333 0 0 0-10.374 0 7.333 7.333 0 0 0 0 10.374l11.787 11.787 11.787-11.787a7.345 7.345 0 0 0 2.149-5.187 7.33 7.33 0 0 0-2.149-5.187z"/>
    </symbol>
    <symbol id="star" viewBox="0 0 32 32">
      <path stroke-width="2.4" d="M19.6 9.395a2.201 2.201 0 0 0 1.57 1.141l7.6 1.313-5.375 5.535a2.2 2.2 0 0 0-.6 1.846l1.098 7.635-6.922-3.402-.234-.1a2.203 2.203 0 0 0-1.473 0l-.234.1-6.924 3.402 1.1-7.635a2.2 2.2 0 0 0-.6-1.846l-5.377-5.535 7.602-1.313a2.198 2.198 0 0 0 1.57-1.141l3.6-6.822 3.6 6.822z"/>
    </symbol>
    <symbol id="check" viewBox="0 0 32 32">
      <path stroke-linecap="round" stroke-linejoin="round" stroke-width="2.182" d="M26.667 9.333 12 24l-6.667-6.667"/>
    </symbol>
    <symbol id="cross-small" viewBox="0 0 32 32">
      <path stroke-linecap="round" stroke-linejoin="round" stroke-width="2.909" d="M25.333 6.667 6.666 25.334m0-18.667 18.667 18.667"/>
    </symbol>
    <symbol id="calendar" viewBox="0 0 32 32">
      <path stroke-linecap="round" stroke-linejoin="round" stroke-width="2.88" d="M25.333 5.333H6.666A2.667 2.667 0 0 0 3.999 8v18.667a2.667 2.667 0 0 0 2.667 2.667h18.667A2.667 2.667 0 0 0 28 26.667V8a2.667 2.667 0 0 0-2.667-2.667zM21.333 2.667V8M10.667 2.667V8M4 13.333h24"/>
    </symbol>
    <symbol id="user" viewBox="0 0 32 32">
      <path stroke-linecap="round" stroke-linejoin="round" stroke-width="2.667" d="M16 20c-4.227 0-7.986 2.041-10.379 5.208-.515.682-.773 1.022-.764 1.483.006.356.23.805.51 1.025.362.284.865.284 1.869.284h17.527c1.005 0 1.507 0 1.869-.284.28-.22.503-.669.51-1.025.008-.461-.249-.801-.764-1.483C23.985 22.041 20.226 20 15.999 20zM16 16a6 6 0 1 0 0-12 6 6 0 0 0 0 12z"/>
    </symbol>
    <symbol id="chevron-down" viewBox="0 0 32 32">
      <path stroke-linecap="round" stroke-linejoin="round" stroke-width="3.556" d="m8 12 8 8 8-8"/>
    </symbol>
    <symbol id="search" viewBox="0 0 32 32">
      <path stroke-linecap="round" stroke-linejoin="round" stroke-width="3.556" d="M14.667 25.333c5.891 0 10.667-4.776 10.667-10.667S20.558 3.999 14.667 3.999 4 8.775 4 14.666s4.776 10.667 10.667 10.667zM28.001 28l-5.8-5.8"/>
    </symbol>
    <symbol id="eye-off" viewBox="0 0 32 32">
      <path stroke-linecap="round" stroke-linejoin="round" stroke-width="2.909" d="M23.922 23.92a13.43 13.43 0 0 1-7.92 2.747C6.669 26.667 1.335 16 1.335 16a24.605 24.605 0 0 1 6.747-7.92m5.12-2.427a12.161 12.161 0 0 1 2.8-.32C25.335 5.333 30.669 16 30.669 16a24.646 24.646 0 0 1-2.88 4.253m-8.961-1.426a4.01 4.01 0 0 1-2.855 1.273 3.996 3.996 0 0 1-3.779-2.501 3.995 3.995 0 0 1 .983-4.424M1.335 1.333l29.333 29.333"/>
    </symbol>
    <symbol id="eye-open" viewBox="0 0 32 32">
      <path stroke-linecap="round" stroke-linejoin="round" stroke-width="2.909" d="M1.332 16S6.665 5.333 15.999 5.333 30.666 16 30.666 16s-5.333 10.667-14.667 10.667C6.666 26.667 1.332 16 1.332 16z"/>
      <path stroke-linecap="round" stroke-linejoin="round" stroke-width="2.909" d="M16 20a4 4 0 1 0 0-8 4 4 0 0 0 0 8z"/>
    </symbol>
  </defs>
</svg>
